Brotherhood (divX)(2010)(NTSC)(AC3)(DD5.1)(Nl Subs extern) TBS 





Verenigde Staten
Drama
76 minuten

geregisseerd door Will Canon
met Trevor Morgan, Jon Foster en Lou Taylor Pucci

Adam Buckley moet als opdracht voor zijn ontgroening voor een studentenvereniging in zijn laatste nacht een supermarkt overvallen. Wanneer de rituele inwijding echter vreselijk mis gaat blijkt iedere beweging rampzalig te zijn. Adam wordt gedwongen een standpunt in te nemen om een vriend te redden en te beslissen waar zijn loyaliteit ligt.

Storyline

Adam Buckley finds himself in the middle of a convenience store robbery during his last night as a pledge for a college fraternity. When the initiation ritual goes horribly wrong, and every move proves disastrous, Adam is forced to confront a new challenge all together, and he has to take a stand.





NFO

SOURCE..........: Brotherhood 2010 BRRip x264 Feel-Free
SIZE............: 1.45GB
FORM............: AVI
VIDEO CODEC.....: XVID 
BITRATE.........: 2253 Kbit/s
WIDTH & HEIGHT..: 720 X 352
FRAMES/S........: 23.976 Fps
AUDIO...........: English
AUDIO CODE......: AC3
BITRATE.........: 384kbps
CHANNELS........: 5
SAMPLING........: 48.0 kHz
Subtitles.......: Dutch srt
Cover en label zijn meegepost. 
Category : Video 
Format : DivX 
Source : Retail 
Subtitle : Dutch subs extern

Format                           : DivX
Format/Info                      : Hack of AVI
File size                        : 1.46 GiB
Duration                         : 1h 19mn
Overall bit rate                 : 2 638 Kbps

Video
ID                               : 0
Format                           : MPEG-4 Visual
Format profile                   : Advanced Simple@L5
Format settings, BVOP            : Yes
Format settings, QPel            : No
Format settings, GMC             : No warppoints
Format settings, Matrix          : Default (H.263)
Muxing mode                      : Packed bitstream
Codec ID                         : DX50
Codec ID/Hint                    : DivX 5
Duration                         : 1h 19mn
Bit rate                         : 2 244 Kbps
Width                            : 720 pixels
Height                           : 352 pixels
Display aspect ratio             : 2.045
Frame rate                       : 23.976 fps
Color space                      : YUV
Chroma subsampling               : 4:2:0
Bit depth                        : 8 bits
Scan type                        : Progressive
Bits/(Pixel*Frame)               : 0.369
Stream size                      : 1.24 GiB (85%)
Title                            : Video 
Writing library                  : XviD 62

Audio
ID                               : 1
Format                           : AC-3
Format/Info                      : Audio Coding 3
Mode extension                   : CM (complete main)
Codec ID                         : 2000
Duration                         : 1h 19mn
Bit rate mode                    : Constant
Bit rate                         : 384 Kbps
Channel(s)                       : 6 channels
Channel positions                : Front: L C R, Side: L R, LFE
Sampling rate                    : 48.0 KHz
Bit depth                        : 16 bits
Stream size                      : 217 MiB (15%)
Alignment                        : Split accross interleaves
Interleave, duration             : 42 ms (1.00 video frame)
Interleave, preload duration     : 500 ms
Title                            : Audio   



  
http://www.moviemeter.nl/film/70666 
http://www.imdb.com/title/tt1273241 